<mxfile host="app.diagrams.net" modified="2023-10-07T13:14:34.294Z" agent="Mozilla/5.0 (Windows NT 10.0; Win64; x64) AppleWebKit/537.36 (KHTML, like Gecko) Chrome/116.0.5845.967 YaBrowser/23.9.1.967 Yowser/2.5 Safari/537.36" etag="zd1QQl2jEWmmJuzpfxXc" version="22.0.4" type="github">
  <diagram name="Страница — 1" id="LLEpSniWc3zmfdP8KVoi">
    <mxGraphModel dx="1386" dy="783" grid="1" gridSize="10" guides="1" tooltips="1" connect="1" arrows="1" fold="1" page="1" pageScale="1" pageWidth="827" pageHeight="1169" math="0" shadow="0">
      <root>
        <mxCell id="0" />
        <mxCell id="1" parent="0" />
        <mxCell id="6gQj30SeAI3kg1Vezh7N-2" value="" style="endArrow=classic;html=1;rounded=0;" edge="1" parent="1" source="6gQj30SeAI3kg1Vezh7N-1">
          <mxGeometry width="50" height="50" relative="1" as="geometry">
            <mxPoint x="390" y="430" as="sourcePoint" />
            <mxPoint x="440" y="380" as="targetPoint" />
          </mxGeometry>
        </mxCell>
        <mxCell id="6gQj30SeAI3kg1Vezh7N-3" value="" style="endArrow=classic;html=1;rounded=0;" edge="1" parent="1" target="6gQj30SeAI3kg1Vezh7N-1">
          <mxGeometry width="50" height="50" relative="1" as="geometry">
            <mxPoint x="390" y="430" as="sourcePoint" />
            <mxPoint x="440" y="380" as="targetPoint" />
          </mxGeometry>
        </mxCell>
        <mxCell id="6gQj30SeAI3kg1Vezh7N-1" value="Организация деятельности ООО &quot;Мебельная фабрика Нижегородец&quot;" style="whiteSpace=wrap;html=1;aspect=fixed;" vertex="1" parent="1">
          <mxGeometry x="284" y="250" width="260" height="260" as="geometry" />
        </mxCell>
        <mxCell id="6gQj30SeAI3kg1Vezh7N-6" value="" style="shape=flexArrow;endArrow=classic;html=1;rounded=0;" edge="1" parent="1">
          <mxGeometry width="50" height="50" relative="1" as="geometry">
            <mxPoint x="204" y="430" as="sourcePoint" />
            <mxPoint x="284" y="430" as="targetPoint" />
          </mxGeometry>
        </mxCell>
        <mxCell id="6gQj30SeAI3kg1Vezh7N-7" value="" style="shape=flexArrow;endArrow=classic;html=1;rounded=0;" edge="1" parent="1">
          <mxGeometry width="50" height="50" relative="1" as="geometry">
            <mxPoint x="204" y="330" as="sourcePoint" />
            <mxPoint x="284" y="330" as="targetPoint" />
            <Array as="points" />
          </mxGeometry>
        </mxCell>
        <mxCell id="6gQj30SeAI3kg1Vezh7N-8" value="Заказы у покупателей" style="text;html=1;align=center;verticalAlign=middle;resizable=0;points=[];autosize=1;strokeColor=none;fillColor=none;" vertex="1" parent="1">
          <mxGeometry x="130" y="390" width="150" height="30" as="geometry" />
        </mxCell>
        <mxCell id="6gQj30SeAI3kg1Vezh7N-9" value="Материалы" style="text;html=1;align=center;verticalAlign=middle;resizable=0;points=[];autosize=1;strokeColor=none;fillColor=none;" vertex="1" parent="1">
          <mxGeometry x="190" y="290" width="90" height="30" as="geometry" />
        </mxCell>
        <mxCell id="6gQj30SeAI3kg1Vezh7N-10" value="" style="shape=flexArrow;endArrow=classic;html=1;rounded=0;" edge="1" parent="1">
          <mxGeometry width="50" height="50" relative="1" as="geometry">
            <mxPoint x="400" y="90" as="sourcePoint" />
            <mxPoint x="400" y="240" as="targetPoint" />
            <Array as="points">
              <mxPoint x="400" y="190" />
            </Array>
          </mxGeometry>
        </mxCell>
        <mxCell id="6gQj30SeAI3kg1Vezh7N-11" value="Правила и процедуры" style="text;html=1;align=center;verticalAlign=middle;resizable=0;points=[];autosize=1;strokeColor=none;fillColor=none;" vertex="1" parent="1">
          <mxGeometry x="410" y="118" width="150" height="30" as="geometry" />
        </mxCell>
        <mxCell id="6gQj30SeAI3kg1Vezh7N-12" value="" style="shape=flexArrow;endArrow=classic;html=1;rounded=0;" edge="1" parent="1">
          <mxGeometry width="50" height="50" relative="1" as="geometry">
            <mxPoint x="544" y="320" as="sourcePoint" />
            <mxPoint x="730" y="320" as="targetPoint" />
          </mxGeometry>
        </mxCell>
        <mxCell id="6gQj30SeAI3kg1Vezh7N-13" value="" style="shape=flexArrow;endArrow=classic;html=1;rounded=0;" edge="1" parent="1" source="6gQj30SeAI3kg1Vezh7N-1">
          <mxGeometry width="50" height="50" relative="1" as="geometry">
            <mxPoint x="550" y="400" as="sourcePoint" />
            <mxPoint x="700" y="380" as="targetPoint" />
          </mxGeometry>
        </mxCell>
        <mxCell id="6gQj30SeAI3kg1Vezh7N-15" value="" style="shape=flexArrow;endArrow=classic;html=1;rounded=0;width=12;endSize=8.67;" edge="1" parent="1">
          <mxGeometry width="50" height="50" relative="1" as="geometry">
            <mxPoint x="544" y="450" as="sourcePoint" />
            <mxPoint x="720" y="450" as="targetPoint" />
          </mxGeometry>
        </mxCell>
        <mxCell id="6gQj30SeAI3kg1Vezh7N-16" value="Реализованная продукция" style="text;html=1;align=center;verticalAlign=middle;resizable=0;points=[];autosize=1;strokeColor=none;fillColor=none;" vertex="1" parent="1">
          <mxGeometry x="540" y="268" width="170" height="30" as="geometry" />
        </mxCell>
        <mxCell id="6gQj30SeAI3kg1Vezh7N-17" value="Учетная и аналитическая документация" style="text;html=1;align=center;verticalAlign=middle;resizable=0;points=[];autosize=1;strokeColor=none;fillColor=none;" vertex="1" parent="1">
          <mxGeometry x="540" y="340" width="250" height="30" as="geometry" />
        </mxCell>
        <mxCell id="6gQj30SeAI3kg1Vezh7N-18" value="Заказы поставщикам" style="text;html=1;align=center;verticalAlign=middle;resizable=0;points=[];autosize=1;strokeColor=none;fillColor=none;" vertex="1" parent="1">
          <mxGeometry x="544" y="468" width="140" height="30" as="geometry" />
        </mxCell>
        <mxCell id="6gQj30SeAI3kg1Vezh7N-19" value="" style="shape=flexArrow;endArrow=classic;html=1;rounded=0;" edge="1" parent="1">
          <mxGeometry width="50" height="50" relative="1" as="geometry">
            <mxPoint x="370" y="570" as="sourcePoint" />
            <mxPoint x="370" y="510" as="targetPoint" />
          </mxGeometry>
        </mxCell>
        <mxCell id="6gQj30SeAI3kg1Vezh7N-20" value="" style="shape=flexArrow;endArrow=classic;html=1;rounded=0;" edge="1" parent="1">
          <mxGeometry width="50" height="50" relative="1" as="geometry">
            <mxPoint x="470" y="570" as="sourcePoint" />
            <mxPoint x="470" y="510" as="targetPoint" />
          </mxGeometry>
        </mxCell>
        <mxCell id="6gQj30SeAI3kg1Vezh7N-21" value="Оборудование" style="text;html=1;align=center;verticalAlign=middle;resizable=0;points=[];autosize=1;strokeColor=none;fillColor=none;" vertex="1" parent="1">
          <mxGeometry x="255" y="528" width="110" height="30" as="geometry" />
        </mxCell>
        <mxCell id="6gQj30SeAI3kg1Vezh7N-22" value="Персонал" style="text;html=1;align=center;verticalAlign=middle;resizable=0;points=[];autosize=1;strokeColor=none;fillColor=none;" vertex="1" parent="1">
          <mxGeometry x="480" y="528" width="80" height="30" as="geometry" />
        </mxCell>
      </root>
    </mxGraphModel>
  </diagram>
</mxfile>
